<svg xmlns="http://www.w3.org/2000/svg" xmlns:xlink="http://www.w3.org/1999/xlink" width="500" zoomAndPan="magnify" viewBox="0 0 375 374.999991" height="500" preserveAspectRatio="xMidYMid meet" version="1.0"><path fill="rgb(1.179504%, 59.609985%, 61.959839%)" d="M 321.125 147.601562 C 317.601562 120.921875 306.457031 95.699219 289.691406 76.574219 C 285.246094 71.449219 280.382812 66.753906 275.101562 62.496094 C 269.820312 58.238281 264.203125 54.480469 258.25 51.226562 C 252.292969 47.96875 246.101562 45.269531 239.664062 43.121094 C 233.226562 40.972656 226.652344 39.410156 219.9375 38.4375 C 188.882812 33.789062 159.429688 44.894531 150.824219 64.34375 C 147.980469 64.4375 145.171875 64.785156 142.390625 65.390625 C 139.613281 65.996094 136.910156 66.847656 134.285156 67.941406 C 131.660156 69.035156 129.15625 70.359375 126.773438 71.910156 C 124.390625 73.460938 122.164062 75.210938 120.097656 77.164062 C 115.710938 74.414062 109.933594 73.878906 103.398438 75.710938 C 82.234375 81.65625 57.375 110.8125 52.84375 160.738281 C 48.730469 205.648438 78.082031 256.738281 122.625 282.214844 C 134.765625 289.398438 147.738281 294.429688 161.550781 297.300781 C 162.558594 297.667969 163.566406 298.007812 164.574219 298.335938 C 165.886719 301.019531 166.695312 313.488281 162.753906 317.71875 C 161.144531 319.460938 158.054688 320.992188 154.214844 322.304688 C 149.828125 321.308594 145.808594 320.351562 142.113281 319.460938 C 124.457031 315.203125 114.726562 312.914062 109.070312 318.152344 C 108.542969 318.699219 108.097656 319.308594 107.730469 319.976562 C 107.367188 320.644531 107.09375 321.347656 106.910156 322.085938 C 106.730469 322.824219 106.648438 323.574219 106.667969 324.335938 C 106.683594 325.097656 106.800781 325.84375 107.011719 326.574219 C 107.601562 328.65625 109.554688 332.347656 115.984375 333.632812 C 120.175781 334.46875 140.1875 332.730469 154.320312 328.183594 C 171.75 332.152344 189.367188 334.964844 207.167969 336.617188 C 213.9375 337.246094 219.542969 337.507812 224.191406 337.507812 C 237.773438 337.507812 243.171875 335.308594 245.292969 333.710938 C 245.992188 333.148438 246.589844 332.488281 247.078125 331.734375 C 247.566406 330.980469 247.925781 330.167969 248.152344 329.296875 C 248.382812 328.425781 248.464844 327.542969 248.410156 326.644531 C 248.351562 325.746094 248.15625 324.878906 247.820312 324.046875 C 243.300781 313.660156 216.386719 312.414062 167.929688 320.324219 C 171.949219 314.472656 171.738281 303.941406 170.546875 298.820312 C 174.476562 299.316406 178.5625 299.644531 182.765625 299.828125 C 183.082031 299.902344 183.398438 299.933594 183.722656 299.921875 C 184.046875 299.914062 184.363281 299.882812 184.679688 299.816406 C 191.605469 299.554688 198.472656 298.78125 205.28125 297.496094 C 219.464844 296.867188 238.117188 290.582031 241.859375 288.945312 C 271.160156 276.164062 293.921875 255.21875 307.6875 228.382812 C 310.796875 222.179688 313.429688 215.777344 315.578125 209.179688 C 317.726562 202.578125 319.371094 195.855469 320.511719 189.007812 C 321.648438 182.160156 322.269531 175.269531 322.375 168.328125 C 322.476562 161.386719 322.058594 154.480469 321.125 147.601562 Z M 117.097656 328.054688 C 115.277344 327.6875 113 326.859375 112.449219 325 C 112.316406 324.539062 112.289062 324.070312 112.363281 323.597656 C 112.4375 323.125 112.609375 322.6875 112.882812 322.289062 C 113.664062 321.710938 114.527344 321.289062 115.464844 321.027344 C 116.402344 320.765625 117.359375 320.679688 118.328125 320.769531 C 123.320312 320.769531 130.902344 322.589844 140.710938 324.949219 L 142.390625 325.355469 C 131.269531 327.59375 119.496094 328.539062 117.097656 328.054688 Z M 242.632812 326.246094 C 242.796875 326.761719 242.8125 327.28125 242.683594 327.804688 C 242.550781 328.328125 242.289062 328.777344 241.902344 329.152344 C 241.296875 329.597656 235.207031 333.5 207.691406 330.949219 C 193.285156 329.636719 180.867188 327.699219 170.101562 325.644531 C 234.082031 315.363281 241.730469 324.242188 242.632812 326.246094 Z M 120.269531 85.257812 C 123.242188 90.222656 122.78125 98.148438 119.140625 107.929688 L 113.234375 108.480469 C 112.640625 108.453125 112.15625 108.207031 111.78125 107.746094 C 111.363281 107.292969 111.195312 106.761719 111.28125 106.148438 C 111.769531 102.308594 112.777344 98.609375 114.304688 95.054688 C 115.832031 91.496094 117.820312 88.21875 120.269531 85.21875 Z M 124.195312 81.015625 C 125.582031 79.722656 127.050781 78.53125 128.597656 77.4375 C 130.148438 76.347656 131.765625 75.367188 133.449219 74.5 C 135.132812 73.628906 136.867188 72.882812 138.65625 72.25 C 140.445312 71.621094 142.265625 71.117188 144.121094 70.738281 C 145.980469 70.359375 147.851562 70.109375 149.746094 69.988281 C 151.636719 69.867188 153.527344 69.878906 155.414062 70.015625 C 157.304688 70.15625 159.175781 70.425781 161.03125 70.820312 C 162.882812 71.21875 164.699219 71.742188 166.480469 72.386719 C 168.261719 73.035156 169.992188 73.800781 171.667969 74.6875 C 173.339844 75.574219 174.949219 76.566406 176.488281 77.675781 C 178.027344 78.78125 179.480469 79.988281 180.855469 81.292969 C 182.226562 82.601562 183.503906 83.996094 184.683594 85.476562 C 185.863281 86.960938 186.9375 88.515625 187.902344 90.148438 C 188.867188 91.777344 189.71875 93.464844 190.453125 95.214844 C 191.1875 96.960938 191.796875 98.75 192.285156 100.582031 C 192.769531 102.414062 193.128906 104.269531 193.363281 106.148438 C 193.441406 106.757812 193.277344 107.289062 192.863281 107.746094 C 192.488281 108.179688 192.011719 108.410156 191.4375 108.441406 L 171.792969 106.59375 C 165.335938 105.992188 158.839844 105.691406 152.34375 105.691406 C 145.847656 105.691406 139.363281 105.992188 132.90625 106.59375 L 125.308594 107.316406 C 128.949219 96.0625 128.6875 86.976562 124.261719 80.976562 Z M 104.867188 81.199219 C 109.238281 79.96875 113.089844 80.097656 116.011719 81.472656 C 113.175781 84.898438 110.875 88.65625 109.113281 92.738281 C 107.347656 96.820312 106.191406 101.066406 105.636719 105.480469 C 105.570312 106.023438 105.558594 106.566406 105.605469 107.109375 C 105.652344 107.652344 105.753906 108.1875 105.917969 108.707031 C 106.078125 109.230469 106.289062 109.730469 106.558594 110.207031 C 106.824219 110.683594 107.136719 111.125 107.5 111.535156 C 107.859375 111.945312 108.261719 112.3125 108.699219 112.636719 C 109.140625 112.960938 109.609375 113.234375 110.105469 113.460938 C 110.605469 113.683594 111.121094 113.851562 111.652344 113.96875 C 112.1875 114.082031 112.726562 114.140625 113.273438 114.136719 L 116.601562 113.824219 C 114.691406 117.875 112.558594 121.804688 110.195312 125.613281 C 95.488281 130.285156 80.542969 134.910156 75.933594 130.285156 C 73.234375 127.589844 73.511719 120.84375 76.71875 110.773438 C 77.664062 107.394531 79 104.175781 80.722656 101.121094 C 82.445312 98.0625 84.507812 95.257812 86.910156 92.699219 L 86.621094 92.421875 C 92.671875 86.609375 98.957031 82.835938 104.929688 81.160156 Z M 125.976562 233.78125 C 126.261719 237.914062 126.984375 241.964844 128.148438 245.941406 C 129.3125 249.917969 130.890625 253.722656 132.878906 257.355469 C 128.078125 258.351562 123.226562 258.722656 118.328125 258.46875 C 111.523438 249.511719 106.191406 239.75 102.335938 229.183594 C 90.289062 196.179688 94.363281 161.15625 113.8125 130.535156 L 113.914062 130.367188 C 121.027344 128.113281 128.324219 125.808594 135.460938 124.144531 C 147.890625 121.25 158.261719 124.5625 163.214844 132.984375 C 167.757812 140.738281 167.863281 154.253906 154.492188 168.949219 C 134.214844 191.265625 124.628906 213.074219 126.042969 233.742188 Z M 136.011719 262.398438 C 139.898438 268.1875 144.519531 273.324219 149.867188 277.800781 C 154.261719 281.585938 157.914062 285.984375 160.828125 291 C 153.558594 288.085938 146.730469 284.359375 140.351562 279.820312 C 133.96875 275.277344 128.207031 270.050781 123.070312 264.140625 C 127.445312 264.023438 131.757812 263.441406 136.011719 262.398438 Z M 93.328125 251.722656 C 69.425781 226.011719 55.621094 192.078125 58.4375 161.25 C 59.609375 146.472656 63.128906 132.28125 68.992188 118.667969 C 67.800781 125.964844 68.78125 131.019531 71.992188 134.242188 C 78.1875 140.449219 90.785156 137.53125 105.847656 132.933594 C 88.535156 163.421875 85.296875 198.863281 97.074219 231.160156 C 100.515625 240.542969 105.082031 249.339844 110.773438 257.550781 C 104.679688 256.519531 98.90625 254.558594 93.445312 251.671875 Z M 125.390625 277.300781 C 117.601562 272.835938 110.335938 267.636719 103.59375 261.703125 C 107.5 262.789062 111.464844 263.515625 115.5 263.890625 C 120.707031 270.414062 126.578125 276.265625 133.117188 281.453125 C 130.5625 280.171875 127.996094 278.792969 125.390625 277.300781 Z M 183.816406 294.171875 C 178.546875 293.996094 173.308594 293.519531 168.097656 292.742188 C 164.542969 285.292969 159.644531 278.867188 153.402344 273.464844 C 148.925781 269.722656 144.996094 265.476562 141.617188 260.722656 C 151.898438 257.160156 162.808594 250.398438 173.429688 238.5625 C 176.0625 235.464844 179.042969 232.746094 182.371094 230.40625 C 185.699219 228.070312 189.265625 226.183594 193.074219 224.757812 L 193.074219 246 C 193.074219 246.738281 193.148438 247.472656 193.292969 248.195312 C 193.4375 248.921875 193.652344 249.625 193.933594 250.308594 C 194.21875 250.992188 194.566406 251.640625 194.976562 252.253906 C 195.386719 252.867188 195.855469 253.4375 196.378906 253.960938 C 196.898438 254.484375 197.46875 254.949219 198.082031 255.359375 C 198.699219 255.773438 199.347656 256.117188 200.03125 256.402344 C 200.710938 256.6875 201.417969 256.898438 202.140625 257.042969 C 202.867188 257.191406 203.597656 257.261719 204.339844 257.261719 L 234.894531 257.261719 C 234.238281 261.433594 233.039062 265.441406 231.292969 269.285156 C 229.546875 273.128906 227.320312 276.667969 224.613281 279.90625 C 215.066406 291.628906 202.898438 292.980469 183.816406 294.171875 Z M 225.042969 163.554688 C 229.183594 158.824219 233.453125 153.925781 234.449219 147.835938 C 237.75 127.523438 234.382812 113.652344 231.921875 103.53125 C 231.226562 100.6875 230.609375 98.289062 230.257812 96 C 230.230469 95.945312 230.230469 95.894531 230.257812 95.839844 C 230.296875 95.785156 230.347656 95.761719 230.414062 95.761719 L 254.121094 95.761719 C 254.191406 95.757812 254.246094 95.785156 254.289062 95.839844 C 254.3125 95.894531 254.3125 95.945312 254.289062 96 C 253.921875 98.238281 253.320312 100.6875 252.640625 103.53125 C 250.179688 113.652344 246.796875 127.523438 250.097656 147.835938 C 251.09375 153.980469 255.339844 158.878906 259.503906 163.554688 C 264.609375 169.40625 269.285156 174.765625 268.734375 182.230469 L 215.863281 182.230469 C 215.3125 174.765625 219.976562 169.40625 225.082031 163.554688 Z M 267.503906 187.875 C 265.765625 192.054688 263.425781 195.863281 260.484375 199.308594 C 259.175781 201.011719 253.007812 202.4375 242.488281 201.824219 L 242.164062 201.824219 C 231.683594 202.4375 225.527344 201.011719 224.152344 199.308594 C 221.214844 195.867188 218.878906 192.054688 217.148438 187.875 Z M 219.765625 202.859375 C 222.386719 206.039062 228.160156 207.636719 237.121094 207.636719 C 238.757812 207.636719 240.484375 207.636719 242.359375 207.480469 C 254.289062 208.175781 261.886719 206.617188 264.925781 202.859375 C 268.75 198.421875 271.597656 193.425781 273.464844 187.875 L 285.972656 187.875 L 285.972656 246 C 285.972656 246.367188 285.9375 246.734375 285.863281 247.09375 C 285.792969 247.457031 285.6875 247.804688 285.546875 248.148438 C 285.40625 248.488281 285.230469 248.8125 285.027344 249.117188 C 284.824219 249.421875 284.589844 249.707031 284.332031 249.96875 C 284.070312 250.230469 283.789062 250.460938 283.480469 250.667969 C 283.175781 250.871094 282.851562 251.046875 282.511719 251.1875 C 282.171875 251.328125 281.820312 251.4375 281.460938 251.507812 C 281.101562 251.582031 280.734375 251.617188 280.367188 251.617188 L 240.929688 251.617188 C 240.816406 249.152344 240.457031 246.726562 239.84375 244.335938 C 239.234375 241.945312 238.386719 239.640625 237.304688 237.421875 C 236.222656 235.203125 234.925781 233.121094 233.417969 231.167969 C 231.910156 229.214844 230.21875 227.4375 228.34375 225.832031 C 226.320312 224.113281 224.136719 222.632812 221.796875 221.386719 C 219.453125 220.140625 217.007812 219.15625 214.453125 218.433594 C 211.898438 217.714844 209.300781 217.273438 206.652344 217.109375 C 204.003906 216.949219 201.367188 217.070312 198.746094 217.472656 L 198.746094 187.875 L 211.320312 187.875 C 213.171875 193.421875 216 198.417969 219.804688 202.859375 Z M 224.675781 230.125 C 226.269531 231.4375 227.703125 232.902344 228.980469 234.523438 C 230.257812 236.144531 231.347656 237.878906 232.25 239.734375 C 233.15625 241.589844 233.851562 243.515625 234.339844 245.519531 C 234.832031 247.523438 235.101562 249.554688 235.15625 251.617188 L 204.417969 251.617188 C 204.046875 251.617188 203.683594 251.582031 203.320312 251.507812 C 202.960938 251.4375 202.609375 251.328125 202.269531 251.1875 C 201.929688 251.046875 201.605469 250.871094 201.296875 250.667969 C 200.992188 250.460938 200.707031 250.230469 200.449219 249.96875 C 200.1875 249.707031 199.953125 249.425781 199.75 249.117188 C 199.542969 248.8125 199.371094 248.488281 199.230469 248.148438 C 199.085938 247.808594 198.980469 247.457031 198.90625 247.09375 C 198.835938 246.734375 198.796875 246.367188 198.796875 246 L 198.796875 223.277344 C 201.078125 222.851562 203.375 222.683594 205.691406 222.769531 C 208.007812 222.855469 210.285156 223.195312 212.527344 223.785156 C 214.769531 224.378906 216.917969 225.210938 218.972656 226.277344 C 221.03125 227.347656 222.945312 228.632812 224.71875 230.125 Z M 239.554688 283.734375 C 234.472656 285.675781 229.285156 287.296875 223.996094 288.589844 C 225.820312 287.027344 227.496094 285.3125 229.027344 283.457031 C 236.375 274.472656 239.9375 265.515625 240.8125 257.261719 L 279.371094 257.261719 C 273.597656 262.84375 267.367188 267.855469 260.683594 272.304688 C 254 276.75 246.972656 280.5625 239.59375 283.734375 Z M 302.65625 225.726562 C 299.472656 231.925781 295.777344 237.804688 291.578125 243.367188 L 291.578125 185.597656 C 291.574219 185.148438 291.488281 184.71875 291.316406 184.308594 C 291.144531 183.894531 290.898438 183.53125 290.582031 183.214844 C 290.265625 182.898438 289.902344 182.65625 289.488281 182.484375 C 289.074219 182.316406 288.644531 182.230469 288.199219 182.230469 L 274.5 182.230469 C 275.050781 172.617188 269.078125 165.78125 263.890625 159.835938 C 260.117188 155.511719 256.554688 151.425781 255.808594 146.882812 C 252.691406 127.695312 255.914062 114.464844 258.257812 104.8125 C 258.941406 101.984375 259.566406 99.3125 260 96.863281 C 260.070312 96.445312 260.09375 96.019531 260.070312 95.597656 C 260.046875 95.171875 259.980469 94.753906 259.867188 94.34375 C 259.753906 93.933594 259.597656 93.542969 259.398438 93.164062 C 259.199219 92.789062 258.960938 92.441406 258.683594 92.117188 C 258.410156 91.792969 258.101562 91.5 257.765625 91.242188 C 257.425781 90.988281 257.0625 90.769531 256.675781 90.589844 C 256.289062 90.414062 255.890625 90.277344 255.472656 90.1875 C 255.058594 90.097656 254.636719 90.050781 254.210938 90.054688 L 230.507812 90.054688 C 230.082031 90.054688 229.660156 90.097656 229.246094 90.191406 C 228.832031 90.28125 228.429688 90.417969 228.046875 90.59375 C 227.660156 90.773438 227.296875 90.992188 226.960938 91.25 C 226.621094 91.503906 226.316406 91.796875 226.039062 92.121094 C 225.765625 92.445312 225.53125 92.792969 225.332031 93.167969 C 225.132812 93.546875 224.976562 93.9375 224.863281 94.347656 C 224.75 94.757812 224.683594 95.175781 224.660156 95.597656 C 224.636719 96.023438 224.660156 96.445312 224.730469 96.863281 C 225.121094 99.3125 225.777344 101.984375 226.457031 104.8125 C 228.816406 114.464844 232.023438 127.695312 228.90625 146.882812 C 228.175781 151.425781 224.613281 155.511719 220.828125 159.835938 C 215.589844 165.78125 209.667969 172.617188 210.21875 182.230469 L 196.53125 182.230469 C 196.085938 182.226562 195.652344 182.3125 195.238281 182.484375 C 194.824219 182.652344 194.460938 182.894531 194.144531 183.210938 C 193.828125 183.527344 193.582031 183.890625 193.410156 184.304688 C 193.238281 184.71875 193.152344 185.148438 193.152344 185.597656 L 193.152344 218.730469 C 185.175781 221.128906 176.992188 226.210938 169.304688 234.777344 C 158.996094 246.289062 148.347656 252.601562 138.550781 255.730469 C 136.574219 252.300781 135.003906 248.695312 133.84375 244.910156 C 132.683594 241.125 131.960938 237.257812 131.675781 233.308594 C 130.367188 214.238281 139.535156 193.847656 158.734375 172.667969 C 174.164062 155.644531 173.703125 139.535156 168.136719 130.039062 C 161.96875 119.558594 148.976562 115.132812 134.230469 118.566406 C 128.992188 119.796875 123.566406 121.367188 118.277344 123.019531 C 120.046875 119.8125 121.644531 116.527344 123.070312 113.15625 L 133.429688 112.1875 C 146.035156 111.003906 158.636719 111.003906 171.242188 112.1875 L 191.070312 114.046875 L 191.332031 114.046875 C 191.878906 114.046875 192.417969 113.992188 192.953125 113.875 C 193.488281 113.761719 194.003906 113.59375 194.5 113.367188 C 195 113.144531 195.46875 112.867188 195.90625 112.542969 C 196.347656 112.21875 196.746094 111.855469 197.105469 111.445312 C 197.46875 111.035156 197.78125 110.589844 198.050781 110.113281 C 198.316406 109.636719 198.53125 109.140625 198.691406 108.617188 C 198.851562 108.09375 198.953125 107.5625 199 107.019531 C 199.046875 106.472656 199.035156 105.929688 198.96875 105.390625 C 198.800781 104.082031 198.582031 102.785156 198.304688 101.496094 C 198.027344 100.207031 197.699219 98.933594 197.316406 97.671875 C 196.933594 96.410156 196.5 95.167969 196.011719 93.945312 C 195.527344 92.71875 194.988281 91.519531 194.402344 90.339844 C 193.816406 89.160156 193.179688 88.007812 192.496094 86.878906 C 191.8125 85.753906 191.082031 84.660156 190.304688 83.59375 C 189.527344 82.527344 188.710938 81.5 187.847656 80.503906 C 186.984375 79.503906 186.082031 78.546875 185.140625 77.625 C 184.199219 76.707031 183.21875 75.828125 182.203125 74.988281 C 181.183594 74.148438 180.136719 73.355469 179.050781 72.605469 C 177.96875 71.855469 176.855469 71.152344 175.714844 70.492188 C 174.574219 69.835938 173.40625 69.226562 172.210938 68.667969 C 171.019531 68.109375 169.804688 67.601562 168.570312 67.144531 C 167.332031 66.6875 166.082031 66.28125 164.8125 65.929688 C 163.542969 65.574219 162.261719 65.277344 160.964844 65.03125 C 159.671875 64.789062 158.367188 64.597656 157.058594 64.460938 C 165.832031 48.574219 191.699219 39.824219 219.136719 43.9375 C 225.53125 44.871094 231.792969 46.363281 237.917969 48.414062 C 244.042969 50.46875 249.9375 53.046875 255.605469 56.15625 C 261.269531 59.265625 266.613281 62.851562 271.632812 66.914062 C 276.65625 70.976562 281.28125 75.457031 285.5 80.347656 C 301.480469 98.683594 312.140625 122.808594 315.53125 148.453125 C 316.417969 155.03125 316.808594 161.640625 316.703125 168.277344 C 316.597656 174.917969 316 181.507812 314.910156 188.058594 C 313.816406 194.605469 312.246094 201.035156 310.191406 207.351562 C 308.140625 213.664062 305.628906 219.789062 302.65625 225.726562 Z M 302.65625 225.726562 " fill-opacity="1" fill-rule="nonzero"/></svg>