<svg xmlns="http://www.w3.org/2000/svg" xmlns:xlink="http://www.w3.org/1999/xlink" width="2560" zoomAndPan="magnify" viewBox="0 0 1920 1079.999946" height="1440" preserveAspectRatio="xMidYMid meet" version="1.0"><defs><g/></defs><rect x="-192" width="2304" fill="rgb(100%, 100%, 100%)" y="-107.999995" height="1295.999935" fill-opacity="1"/><rect x="-192" width="2304" fill="rgb(100%, 100%, 100%)" y="-107.999995" height="1295.999935" fill-opacity="1"/><rect x="-192" width="2304" fill="rgb(100%, 100%, 100%)" y="-107.999995" height="1295.999935" fill-opacity="1"/><rect x="-192" width="2304" fill="rgb(100%, 100%, 100%)" y="-107.999995" height="1295.999935" fill-opacity="1"/><path fill="rgb(1.179504%, 59.609985%, 61.959839%)" d="M 556.136719 470.539062 C 550 424.082031 530.59375 380.152344 501.398438 346.855469 C 497.539062 342.398438 493.484375 338.125 489.242188 334.03125 C 485 329.933594 480.582031 326.039062 475.992188 322.335938 C 471.402344 318.636719 466.65625 315.148438 461.753906 311.871094 C 456.855469 308.589844 451.816406 305.539062 446.644531 302.710938 C 441.46875 299.882812 436.179688 297.289062 430.777344 294.929688 C 425.371094 292.574219 419.871094 290.460938 414.28125 288.59375 C 408.6875 286.726562 403.023438 285.113281 397.285156 283.753906 C 391.546875 282.390625 385.761719 281.285156 379.925781 280.441406 C 325.851562 272.34375 274.554688 291.683594 259.570312 325.554688 C 254.621094 325.71875 249.726562 326.324219 244.886719 327.378906 C 240.050781 328.429688 235.34375 329.910156 230.773438 331.820312 C 226.203125 333.726562 221.84375 336.027344 217.691406 338.726562 C 213.539062 341.425781 209.664062 344.480469 206.066406 347.882812 C 198.425781 343.09375 188.367188 342.15625 176.984375 345.351562 C 140.128906 355.703125 96.839844 406.472656 88.949219 493.414062 C 81.789062 571.621094 132.898438 660.59375 210.46875 704.953125 C 220.964844 711.167969 231.902344 716.480469 243.273438 720.890625 C 254.648438 725.296875 266.308594 728.746094 278.25 731.230469 C 280.007812 731.867188 281.761719 732.460938 283.519531 733.03125 C 285.800781 737.707031 287.214844 759.417969 280.347656 766.785156 C 277.542969 769.820312 272.160156 772.488281 265.480469 774.769531 C 257.839844 773.035156 250.835938 771.371094 244.40625 769.820312 C 213.660156 762.40625 196.714844 758.414062 186.863281 767.539062 C 185.945312 768.496094 185.167969 769.554688 184.53125 770.71875 C 183.894531 771.878906 183.417969 773.101562 183.101562 774.390625 C 182.789062 775.679688 182.648438 776.984375 182.675781 778.308594 C 182.707031 779.632812 182.910156 780.933594 183.28125 782.203125 C 184.308594 785.832031 187.707031 792.261719 198.902344 794.496094 C 206.203125 795.957031 241.050781 792.921875 265.660156 785.007812 C 296.015625 791.917969 326.691406 796.8125 357.6875 799.695312 C 369.480469 800.792969 379.242188 801.246094 387.339844 801.246094 C 410.988281 801.246094 420.386719 797.417969 424.082031 794.632812 C 424.6875 794.148438 425.253906 793.613281 425.773438 793.035156 C 426.296875 792.460938 426.769531 791.84375 427.191406 791.191406 C 427.613281 790.539062 427.984375 789.855469 428.296875 789.144531 C 428.613281 788.429688 428.867188 787.699219 429.0625 786.945312 C 429.261719 786.191406 429.398438 785.429688 429.472656 784.652344 C 429.546875 783.878906 429.558594 783.105469 429.511719 782.328125 C 429.460938 781.550781 429.351562 780.78125 429.175781 780.023438 C 429.003906 779.265625 428.773438 778.523438 428.484375 777.800781 C 420.613281 759.714844 373.746094 757.550781 289.359375 771.324219 C 296.359375 761.128906 295.996094 742.792969 293.917969 733.875 C 300.761719 734.742188 307.878906 735.3125 315.199219 735.632812 C 315.746094 735.757812 316.300781 735.8125 316.863281 735.789062 C 317.425781 735.78125 317.980469 735.722656 318.527344 735.609375 C 330.585938 735.152344 342.546875 733.808594 354.40625 731.570312 C 379.105469 730.476562 411.582031 719.527344 418.105469 716.679688 C 469.125 694.417969 508.765625 657.949219 532.738281 611.214844 C 535.441406 605.820312 537.941406 600.332031 540.234375 594.75 C 542.527344 589.167969 544.609375 583.507812 546.480469 577.769531 C 548.347656 572.03125 550 566.230469 551.433594 560.371094 C 552.867188 554.507812 554.078125 548.601562 555.070312 542.648438 C 556.058594 536.695312 556.824219 530.710938 557.367188 524.699219 C 557.90625 518.691406 558.222656 512.667969 558.3125 506.632812 C 558.402344 500.597656 558.265625 494.570312 557.902344 488.546875 C 557.539062 482.523438 556.949219 476.519531 556.136719 470.539062 Z M 200.84375 784.78125 C 197.671875 784.140625 193.703125 782.707031 192.746094 779.46875 C 192.515625 778.664062 192.464844 777.847656 192.597656 777.023438 C 192.726562 776.195312 193.027344 775.4375 193.5 774.746094 C 194.863281 773.738281 196.363281 773.003906 198 772.550781 C 199.632812 772.09375 201.296875 771.945312 202.988281 772.101562 C 211.675781 772.101562 224.882812 775.269531 241.964844 779.375 L 244.882812 780.082031 C 225.519531 783.984375 205.015625 785.625 200.84375 784.78125 Z M 419.453125 781.632812 C 419.59375 782.074219 419.667969 782.523438 419.683594 782.984375 C 419.699219 783.445312 419.648438 783.898438 419.535156 784.347656 C 419.421875 784.792969 419.25 785.21875 419.019531 785.617188 C 418.789062 786.015625 418.507812 786.375 418.175781 786.695312 C 417.125 787.472656 406.519531 794.269531 358.601562 789.820312 C 333.511719 787.539062 311.890625 784.164062 293.144531 780.585938 C 404.558594 762.679688 417.878906 778.144531 419.453125 781.632812 Z M 206.363281 361.976562 C 211.539062 370.621094 210.742188 384.417969 204.402344 401.457031 L 194.113281 402.414062 C 193.082031 402.363281 192.238281 401.9375 191.582031 401.136719 C 191.238281 400.761719 190.988281 400.332031 190.835938 399.84375 C 190.683594 399.355469 190.644531 398.859375 190.714844 398.355469 C 191.566406 391.667969 193.320312 385.226562 195.976562 379.03125 C 198.636719 372.835938 202.097656 367.128906 206.363281 361.90625 Z M 213.203125 354.585938 C 215.617188 352.335938 218.171875 350.257812 220.871094 348.359375 C 223.566406 346.457031 226.382812 344.75 229.316406 343.238281 C 232.25 341.726562 235.269531 340.421875 238.382812 339.324219 C 241.496094 338.230469 244.667969 337.351562 247.902344 336.691406 C 251.136719 336.03125 254.398438 335.597656 257.691406 335.386719 C 260.984375 335.175781 264.277344 335.191406 267.570312 335.433594 C 270.859375 335.675781 274.117188 336.144531 277.347656 336.835938 C 280.574219 337.527344 283.738281 338.4375 286.839844 339.5625 C 289.941406 340.691406 292.949219 342.023438 295.867188 343.566406 C 298.785156 345.109375 301.585938 346.839844 304.261719 348.769531 C 306.941406 350.695312 309.476562 352.796875 311.867188 355.070312 C 314.257812 357.347656 316.480469 359.777344 318.535156 362.359375 C 320.589844 364.9375 322.460938 367.648438 324.140625 370.488281 C 325.824219 373.328125 327.304688 376.269531 328.582031 379.308594 C 329.859375 382.351562 330.921875 385.46875 331.773438 388.65625 C 332.621094 391.847656 333.246094 395.078125 333.648438 398.355469 C 333.714844 398.859375 333.671875 399.355469 333.519531 399.839844 C 333.371094 400.328125 333.125 400.757812 332.785156 401.136719 C 332.125 401.890625 331.296875 402.292969 330.296875 402.347656 L 296.085938 399.128906 C 284.84375 398.082031 273.53125 397.554688 262.21875 397.554688 C 250.90625 397.554688 239.613281 398.082031 228.371094 399.128906 L 215.144531 400.382812 C 221.484375 380.792969 221.027344 364.964844 213.316406 354.519531 Z M 179.539062 354.90625 C 187.15625 352.761719 193.863281 352.992188 198.949219 355.386719 C 196.492188 358.351562 194.257812 361.480469 192.246094 364.765625 C 190.234375 368.050781 188.460938 371.460938 186.933594 375 C 185.40625 378.535156 184.136719 382.164062 183.121094 385.878906 C 182.109375 389.597656 181.363281 393.367188 180.886719 397.191406 C 180.824219 397.660156 180.792969 398.132812 180.78125 398.609375 C 180.773438 399.082031 180.789062 399.554688 180.828125 400.027344 C 180.867188 400.5 180.933594 400.96875 181.023438 401.433594 C 181.117188 401.898438 181.230469 402.359375 181.371094 402.8125 C 181.507812 403.265625 181.671875 403.710938 181.859375 404.144531 C 182.046875 404.582031 182.253906 405.007812 182.484375 405.421875 C 182.71875 405.835938 182.96875 406.234375 183.246094 406.621094 C 183.519531 407.007812 183.8125 407.378906 184.125 407.734375 C 184.441406 408.089844 184.773438 408.429688 185.121094 408.75 C 185.472656 409.070312 185.835938 409.371094 186.21875 409.652344 C 186.597656 409.933594 186.996094 410.195312 187.402344 410.433594 C 187.8125 410.671875 188.234375 410.890625 188.667969 411.085938 C 189.097656 411.28125 189.539062 411.449219 189.992188 411.597656 C 190.441406 411.746094 190.898438 411.871094 191.363281 411.96875 C 191.824219 412.070312 192.292969 412.144531 192.765625 412.191406 C 193.234375 412.242188 193.707031 412.265625 194.183594 412.265625 L 199.976562 411.71875 C 196.652344 418.777344 192.9375 425.617188 188.824219 432.246094 C 163.210938 440.386719 137.1875 448.441406 129.160156 440.386719 C 124.460938 435.691406 124.9375 423.945312 130.527344 406.40625 C 132.175781 400.523438 134.496094 394.917969 137.5 389.597656 C 140.5 384.273438 144.089844 379.386719 148.269531 374.929688 L 147.769531 374.453125 C 158.304688 364.324219 169.253906 357.757812 179.65625 354.835938 Z M 216.304688 620.613281 C 216.800781 627.808594 218.0625 634.871094 220.085938 641.792969 C 222.113281 648.714844 224.859375 655.339844 228.324219 661.667969 C 219.960938 663.402344 211.515625 664.050781 202.988281 663.605469 C 191.132812 648.011719 181.851562 631.011719 175.136719 612.609375 C 154.15625 555.132812 161.25 494.144531 195.117188 440.820312 L 195.300781 440.527344 C 207.683594 436.601562 220.386719 432.589844 232.820312 429.691406 C 254.460938 424.652344 272.527344 430.421875 281.148438 445.085938 C 289.0625 458.589844 289.242188 482.125 265.957031 507.714844 C 230.652344 546.578125 213.957031 584.554688 216.417969 620.542969 Z M 233.777344 670.449219 C 240.546875 680.53125 248.589844 689.472656 257.90625 697.269531 C 265.558594 703.859375 271.921875 711.523438 276.996094 720.257812 C 270.6875 717.730469 264.550781 714.839844 258.585938 711.582031 C 252.621094 708.324219 246.871094 704.726562 241.332031 700.785156 C 235.796875 696.847656 230.511719 692.59375 225.476562 688.027344 C 220.445312 683.460938 215.699219 678.609375 211.242188 673.480469 C 218.863281 673.277344 226.375 672.265625 233.777344 670.449219 Z M 159.445312 651.859375 C 117.824219 607.089844 93.785156 547.992188 98.6875 494.304688 C 99.703125 481.527344 101.75 468.917969 104.835938 456.476562 C 107.921875 444.035156 112 431.929688 117.070312 420.160156 C 114.996094 432.863281 116.707031 441.664062 122.292969 447.277344 C 133.082031 458.085938 155.023438 453 181.25 444.996094 C 151.097656 498.089844 145.464844 559.808594 165.96875 616.050781 C 171.964844 632.386719 179.917969 647.707031 189.828125 662.007812 C 179.21875 660.210938 169.160156 656.800781 159.652344 651.769531 Z M 215.28125 696.402344 C 201.714844 688.621094 189.066406 679.570312 177.328125 669.238281 C 184.125 671.125 191.035156 672.394531 198.058594 673.046875 C 207.125 684.40625 217.351562 694.601562 228.734375 703.632812 C 224.289062 701.398438 219.816406 699.003906 215.28125 696.402344 Z M 317.023438 725.777344 C 307.851562 725.476562 298.730469 724.644531 289.65625 723.292969 C 286.59375 716.875 282.90625 710.839844 278.59375 705.183594 C 274.285156 699.527344 269.441406 694.375 264.066406 689.71875 C 256.269531 683.203125 249.425781 675.808594 243.539062 667.527344 C 261.441406 661.324219 280.441406 649.554688 298.9375 628.9375 C 303.527344 623.542969 308.71875 618.808594 314.511719 614.738281 C 320.304688 610.667969 326.519531 607.386719 333.148438 604.898438 L 333.148438 641.890625 C 333.148438 642.535156 333.179688 643.175781 333.246094 643.8125 C 333.308594 644.453125 333.402344 645.085938 333.527344 645.71875 C 333.65625 646.347656 333.8125 646.96875 334 647.582031 C 334.183594 648.199219 334.402344 648.800781 334.648438 649.394531 C 334.894531 649.988281 335.167969 650.566406 335.472656 651.132812 C 335.773438 651.699219 336.105469 652.25 336.460938 652.785156 C 336.816406 653.316406 337.199219 653.832031 337.609375 654.328125 C 338.015625 654.824219 338.445312 655.300781 338.898438 655.753906 C 339.355469 656.210938 339.828125 656.640625 340.324219 657.046875 C 340.820312 657.453125 341.335938 657.835938 341.871094 658.195312 C 342.40625 658.550781 342.953125 658.882812 343.519531 659.183594 C 344.085938 659.488281 344.667969 659.761719 345.261719 660.007812 C 345.851562 660.253906 346.457031 660.46875 347.070312 660.65625 C 347.6875 660.84375 348.308594 661 348.9375 661.125 C 349.566406 661.25 350.203125 661.347656 350.839844 661.410156 C 351.480469 661.472656 352.121094 661.507812 352.761719 661.507812 L 405.972656 661.507812 C 404.832031 668.769531 402.742188 675.746094 399.703125 682.441406 C 396.664062 689.136719 392.785156 695.300781 388.070312 700.941406 C 371.441406 721.355469 350.253906 723.703125 317.023438 725.777344 Z M 388.820312 498.320312 C 396.027344 490.085938 403.464844 481.554688 405.195312 470.949219 C 410.945312 435.574219 405.082031 411.421875 400.796875 393.792969 C 399.585938 388.84375 398.515625 384.671875 397.898438 380.679688 C 397.855469 380.585938 397.855469 380.496094 397.898438 380.40625 C 397.964844 380.308594 398.054688 380.265625 398.171875 380.269531 L 439.453125 380.269531 C 439.578125 380.261719 439.675781 380.304688 439.75 380.40625 C 439.789062 380.496094 439.789062 380.585938 439.75 380.679688 C 439.113281 384.578125 438.0625 388.84375 436.875 393.792969 C 432.589844 411.421875 426.703125 435.574219 432.453125 470.949219 C 434.183594 481.648438 441.574219 490.175781 448.828125 498.320312 C 457.722656 508.515625 465.863281 517.84375 464.90625 530.84375 L 372.832031 530.84375 C 371.875 517.84375 379.996094 508.515625 388.890625 498.320312 Z M 462.761719 540.671875 C 459.730469 547.949219 455.65625 554.585938 450.539062 560.582031 C 448.257812 563.546875 437.515625 566.035156 419.199219 564.960938 L 418.628906 564.960938 C 400.386719 566.035156 389.664062 563.546875 387.269531 560.582031 C 382.152344 554.59375 378.082031 547.953125 375.070312 540.671875 Z M 379.628906 566.765625 C 384.191406 572.308594 394.25 575.089844 409.851562 575.089844 C 412.699219 575.089844 415.710938 575.089844 418.972656 574.816406 C 439.75 576.023438 452.980469 573.308594 458.269531 566.765625 C 464.933594 559.039062 469.890625 550.34375 473.140625 540.671875 L 494.921875 540.671875 L 494.921875 641.890625 C 494.921875 642.535156 494.859375 643.167969 494.734375 643.796875 C 494.609375 644.425781 494.425781 645.039062 494.179688 645.632812 C 493.933594 646.222656 493.632812 646.789062 493.277344 647.320312 C 492.921875 647.855469 492.515625 648.347656 492.0625 648.804688 C 491.609375 649.257812 491.117188 649.664062 490.585938 650.019531 C 490.050781 650.378906 489.488281 650.679688 488.898438 650.925781 C 488.304688 651.171875 487.695312 651.359375 487.066406 651.484375 C 486.4375 651.609375 485.800781 651.675781 485.160156 651.675781 L 416.488281 651.675781 C 416.289062 647.382812 415.660156 643.15625 414.59375 638.992188 C 413.53125 634.828125 412.058594 630.816406 410.171875 626.957031 C 408.289062 623.09375 406.03125 619.464844 403.402344 616.0625 C 400.777344 612.664062 397.832031 609.566406 394.570312 606.769531 C 392.8125 605.277344 390.980469 603.886719 389.074219 602.59375 C 387.167969 601.300781 385.199219 600.113281 383.164062 599.03125 C 381.132812 597.949219 379.046875 596.976562 376.910156 596.117188 C 374.773438 595.257812 372.59375 594.515625 370.378906 593.890625 C 368.160156 593.265625 365.917969 592.757812 363.644531 592.375 C 361.375 591.988281 359.089844 591.726562 356.789062 591.585938 C 354.492188 591.445312 352.191406 591.425781 349.890625 591.53125 C 347.589844 591.636719 345.300781 591.867188 343.023438 592.21875 L 343.023438 540.671875 L 364.917969 540.671875 C 368.144531 550.332031 373.070312 559.03125 379.699219 566.765625 Z M 388.183594 614.25 C 390.953125 616.535156 393.453125 619.085938 395.675781 621.90625 C 397.898438 624.726562 399.796875 627.753906 401.371094 630.980469 C 402.945312 634.210938 404.160156 637.570312 405.011719 641.058594 C 405.863281 644.546875 406.335938 648.085938 406.429688 651.675781 L 352.898438 651.675781 C 352.257812 651.675781 351.621094 651.613281 350.992188 651.484375 C 350.363281 651.359375 349.75 651.171875 349.160156 650.925781 C 348.566406 650.679688 348.003906 650.378906 347.46875 650.019531 C 346.9375 649.664062 346.441406 649.257812 345.988281 648.804688 C 345.535156 648.351562 345.128906 647.855469 344.769531 647.324219 C 344.414062 646.789062 344.113281 646.226562 343.867188 645.632812 C 343.621094 645.039062 343.433594 644.429688 343.308594 643.800781 C 343.179688 643.171875 343.117188 642.535156 343.117188 641.890625 L 343.117188 602.320312 C 345.09375 601.953125 347.085938 601.695312 349.09375 601.546875 C 351.101562 601.398438 353.109375 601.363281 355.121094 601.4375 C 357.128906 601.511719 359.128906 601.695312 361.121094 601.992188 C 363.113281 602.289062 365.078125 602.695312 367.023438 603.207031 C 368.96875 603.722656 370.882812 604.34375 372.757812 605.070312 C 374.636719 605.792969 376.464844 606.621094 378.25 607.550781 C 380.035156 608.480469 381.765625 609.503906 383.4375 610.625 C 385.109375 611.742188 386.714844 612.953125 388.25 614.25 Z M 414.09375 707.601562 C 405.238281 710.988281 396.207031 713.808594 386.996094 716.0625 C 390.175781 713.335938 393.09375 710.355469 395.753906 707.121094 C 408.550781 691.476562 414.753906 675.875 416.28125 661.507812 L 483.425781 661.507812 C 473.371094 671.222656 462.527344 679.953125 450.886719 687.699219 C 439.246094 695.445312 427.003906 702.078125 414.160156 707.601562 Z M 523.976562 606.585938 C 518.429688 617.382812 511.996094 627.621094 504.683594 637.308594 L 504.683594 536.703125 C 504.683594 536.320312 504.644531 535.9375 504.566406 535.558594 C 504.488281 535.183594 504.378906 534.816406 504.230469 534.460938 C 504.082031 534.105469 503.898438 533.765625 503.683594 533.445312 C 503.46875 533.125 503.226562 532.832031 502.953125 532.558594 C 502.679688 532.285156 502.382812 532.042969 502.0625 531.828125 C 501.738281 531.617188 501.402344 531.4375 501.046875 531.289062 C 500.6875 531.140625 500.320312 531.03125 499.945312 530.957031 C 499.566406 530.878906 499.183594 530.84375 498.800781 530.84375 L 474.941406 530.84375 C 475.898438 514.101562 465.5 502.195312 456.46875 491.84375 C 449.898438 484.316406 443.695312 477.199219 442.394531 469.285156 C 436.96875 435.871094 442.578125 412.835938 446.660156 396.027344 C 447.847656 391.101562 448.941406 386.449219 449.695312 382.183594 C 449.753906 381.820312 449.796875 381.453125 449.816406 381.085938 C 449.835938 380.714844 449.835938 380.347656 449.816406 379.976562 C 449.796875 379.609375 449.757812 379.242188 449.699219 378.878906 C 449.640625 378.511719 449.558594 378.152344 449.460938 377.796875 C 449.363281 377.441406 449.246094 377.09375 449.109375 376.75 C 448.972656 376.40625 448.816406 376.070312 448.644531 375.746094 C 448.472656 375.417969 448.28125 375.101562 448.074219 374.796875 C 447.867188 374.492188 447.644531 374.199219 447.40625 373.917969 C 447.164062 373.636719 446.910156 373.367188 446.644531 373.113281 C 446.375 372.859375 446.09375 372.621094 445.800781 372.398438 C 445.503906 372.175781 445.199219 371.96875 444.882812 371.777344 C 444.566406 371.585938 444.242188 371.414062 443.90625 371.261719 C 443.570312 371.105469 443.226562 370.96875 442.878906 370.851562 C 442.527344 370.734375 442.171875 370.636719 441.808594 370.558594 C 441.449219 370.480469 441.085938 370.421875 440.71875 370.382812 C 440.351562 370.34375 439.984375 370.324219 439.613281 370.324219 L 398.332031 370.324219 C 397.964844 370.324219 397.59375 370.34375 397.230469 370.382812 C 396.863281 370.425781 396.5 370.484375 396.136719 370.5625 C 395.777344 370.640625 395.421875 370.742188 395.074219 370.859375 C 394.722656 370.976562 394.382812 371.113281 394.046875 371.269531 C 393.714844 371.421875 393.386719 371.59375 393.070312 371.785156 C 392.757812 371.976562 392.453125 372.183594 392.15625 372.40625 C 391.863281 372.628906 391.582031 372.867188 391.316406 373.121094 C 391.046875 373.375 390.796875 373.644531 390.558594 373.925781 C 390.316406 374.207031 390.09375 374.5 389.890625 374.804688 C 389.683594 375.109375 389.492188 375.425781 389.320312 375.753906 C 389.148438 376.078125 388.992188 376.414062 388.855469 376.753906 C 388.722656 377.097656 388.605469 377.449219 388.503906 377.804688 C 388.40625 378.160156 388.328125 378.519531 388.269531 378.882812 C 388.210938 379.246094 388.171875 379.613281 388.152344 379.980469 C 388.132812 380.347656 388.132812 380.71875 388.152344 381.085938 C 388.171875 381.453125 388.214844 381.820312 388.273438 382.183594 C 388.957031 386.449219 390.097656 391.101562 391.285156 396.027344 C 395.390625 412.835938 400.976562 435.871094 395.550781 469.285156 C 394.273438 477.199219 388.070312 484.316406 381.476562 491.84375 C 372.355469 502.195312 362.046875 514.101562 363.003906 530.84375 L 339.167969 530.84375 C 338.785156 530.839844 338.402344 530.878906 338.023438 530.953125 C 337.644531 531.027344 337.277344 531.136719 336.917969 531.28125 C 336.5625 531.429688 336.222656 531.609375 335.902344 531.824219 C 335.582031 532.035156 335.285156 532.277344 335.011719 532.550781 C 334.738281 532.824219 334.492188 533.121094 334.277344 533.441406 C 334.0625 533.761719 333.882812 534.101562 333.734375 534.457031 C 333.585938 534.8125 333.472656 535.179688 333.398438 535.558594 C 333.324219 535.9375 333.285156 536.320312 333.285156 536.703125 L 333.285156 594.40625 C 319.394531 598.582031 305.140625 607.429688 291.753906 622.347656 C 273.804688 642.394531 255.261719 653.386719 238.199219 658.839844 C 234.757812 652.867188 232.027344 646.582031 230.003906 639.992188 C 227.984375 633.402344 226.722656 626.667969 226.226562 619.792969 C 223.945312 586.585938 239.910156 551.074219 273.347656 514.195312 C 300.214844 484.542969 299.417969 456.492188 289.722656 439.957031 C 278.980469 421.710938 256.355469 414 230.675781 419.976562 C 221.550781 422.121094 212.109375 424.855469 202.894531 427.730469 C 205.976562 422.152344 208.757812 416.425781 211.242188 410.554688 L 229.285156 408.867188 C 251.230469 406.8125 273.179688 406.8125 295.128906 408.867188 L 329.660156 412.105469 L 330.113281 412.105469 C 330.589844 412.109375 331.0625 412.082031 331.535156 412.035156 C 332.003906 411.984375 332.472656 411.910156 332.9375 411.808594 C 333.398438 411.710938 333.855469 411.585938 334.308594 411.4375 C 334.757812 411.292969 335.199219 411.121094 335.632812 410.925781 C 336.0625 410.730469 336.484375 410.511719 336.894531 410.273438 C 337.304688 410.035156 337.699219 409.773438 338.078125 409.492188 C 338.460938 409.210938 338.828125 408.910156 339.175781 408.589844 C 339.527344 408.269531 339.859375 407.929688 340.171875 407.574219 C 340.484375 407.21875 340.777344 406.847656 341.054688 406.460938 C 341.328125 406.074219 341.582031 405.675781 341.8125 405.261719 C 342.042969 404.847656 342.253906 404.421875 342.4375 403.984375 C 342.625 403.550781 342.789062 403.105469 342.929688 402.652344 C 343.066406 402.199219 343.183594 401.738281 343.273438 401.273438 C 343.363281 400.808594 343.429688 400.339844 343.46875 399.867188 C 343.511719 399.394531 343.527344 398.921875 343.515625 398.449219 C 343.507812 397.972656 343.472656 397.5 343.410156 397.03125 C 343.121094 394.753906 342.734375 392.496094 342.257812 390.25 C 341.777344 388.007812 341.203125 385.789062 340.535156 383.59375 C 339.871094 381.398438 339.113281 379.234375 338.265625 377.101562 C 337.417969 374.96875 336.484375 372.875 335.460938 370.820312 C 334.4375 368.769531 333.332031 366.761719 332.140625 364.800781 C 330.949219 362.839844 329.675781 360.929688 328.324219 359.078125 C 326.972656 357.222656 325.546875 355.425781 324.046875 353.691406 C 322.542969 351.957031 320.972656 350.289062 319.332031 348.683594 C 317.691406 347.082031 315.984375 345.550781 314.214844 344.089844 C 312.445312 342.628906 310.617188 341.246094 308.730469 339.941406 C 306.84375 338.632812 304.90625 337.40625 302.917969 336.261719 C 300.929688 335.117188 298.894531 334.058594 296.820312 333.085938 C 294.742188 332.113281 292.625 331.226562 290.476562 330.429688 C 288.324219 329.632812 286.140625 328.925781 283.929688 328.3125 C 281.71875 327.699219 279.488281 327.179688 277.234375 326.753906 C 274.980469 326.328125 272.710938 325.996094 270.429688 325.757812 C 285.707031 298.09375 330.753906 282.859375 378.535156 290.019531 C 384.089844 290.828125 389.597656 291.886719 395.0625 293.1875 C 400.523438 294.488281 405.914062 296.03125 411.238281 297.816406 C 416.5625 299.601562 421.796875 301.617188 426.9375 303.867188 C 432.082031 306.121094 437.117188 308.59375 442.039062 311.296875 C 446.960938 313.996094 451.753906 316.910156 456.414062 320.039062 C 461.078125 323.167969 465.589844 326.5 469.953125 330.03125 C 474.320312 333.5625 478.515625 337.28125 482.550781 341.1875 C 486.582031 345.09375 490.433594 349.171875 494.101562 353.421875 C 521.925781 385.355469 540.492188 427.367188 546.398438 472.023438 C 547.9375 483.480469 548.617188 494.988281 548.4375 506.546875 C 548.253906 518.105469 547.210938 529.589844 545.3125 540.992188 C 543.414062 552.394531 540.675781 563.59375 537.097656 574.585938 C 533.523438 585.582031 529.148438 596.246094 523.976562 606.585938 Z M 523.976562 606.585938 " fill-opacity="1" fill-rule="nonzero"/><g fill="rgb(0%, 0%, 0%)" fill-opacity="1"><g transform="translate(674.274898, 590.579761)"><g><path d="M 18.136719 0 L 66.074219 0 C 89.609375 0 109.042969 -7.773438 124.59375 -23.320312 C 139.921875 -38.867188 147.695312 -58.085938 147.695312 -80.972656 C 147.695312 -103.648438 139.921875 -122.863281 124.59375 -138.410156 C 109.042969 -153.957031 89.609375 -161.949219 66.074219 -161.949219 L 18.136719 -161.949219 Z M 42.96875 -23.320312 L 42.96875 -138.628906 L 65.210938 -138.628906 C 81.835938 -138.628906 95.441406 -133.011719 106.238281 -122.214844 C 116.820312 -111.203125 122.214844 -97.382812 122.214844 -80.972656 C 122.214844 -64.347656 116.820312 -50.527344 106.238281 -39.730469 C 95.441406 -28.71875 81.835938 -23.320312 65.210938 -23.320312 Z M 42.96875 -23.320312 "/></g></g></g><g fill="rgb(0%, 0%, 0%)" fill-opacity="1"><g transform="translate(834.26775, 590.579761)"><g><path d="M 123.082031 -54.847656 C 122.863281 -70.824219 117.464844 -84.210938 106.886719 -94.578125 C 96.304688 -104.941406 83.132812 -110.125 67.585938 -110.125 C 51.175781 -110.125 37.570312 -104.726562 26.773438 -93.929688 C 15.980469 -83.132812 10.582031 -69.746094 10.582031 -53.984375 C 10.582031 -38.003906 15.761719 -24.617188 26.558594 -13.820312 C 37.140625 -3.023438 50.960938 2.160156 68.234375 2.160156 C 79.03125 2.160156 88.746094 -0.433594 97.601562 -5.832031 C 106.238281 -11.011719 112.933594 -18.355469 117.464844 -27.421875 L 96.953125 -35.628906 C 90.257812 -24.617188 80.542969 -19.21875 67.800781 -19.21875 C 59.164062 -19.21875 51.605469 -22.023438 45.34375 -27.640625 C 39.082031 -33.253906 35.628906 -40.59375 34.765625 -49.664062 L 122.863281 -49.664062 Z M 67.371094 -89.179688 C 74.28125 -89.179688 80.324219 -87.234375 85.507812 -83.566406 C 90.691406 -79.679688 94.363281 -74.496094 96.738281 -68.019531 L 37.140625 -68.019531 C 39.515625 -74.496094 43.402344 -79.460938 48.800781 -83.347656 C 53.984375 -87.234375 60.246094 -89.179688 67.371094 -89.179688 Z M 67.371094 -89.179688 "/></g></g></g><g fill="rgb(0%, 0%, 0%)" fill-opacity="1"><g transform="translate(967.919006, 590.579761)"><g><path d="M 68.234375 2.160156 C 79.894531 2.160156 90.476562 -0.648438 99.761719 -6.695312 C 109.042969 -12.738281 115.953125 -20.945312 120.488281 -31.527344 L 98.894531 -40.59375 C 96.304688 -34.332031 92.417969 -29.367188 87.019531 -25.910156 C 81.40625 -22.242188 75.144531 -20.511719 68.234375 -20.511719 C 58.300781 -20.511719 50.3125 -23.535156 44.050781 -30.015625 C 37.570312 -36.277344 34.550781 -44.265625 34.550781 -53.984375 C 34.550781 -63.484375 37.570312 -71.472656 44.050781 -77.949219 C 50.3125 -84.210938 58.300781 -87.453125 68.234375 -87.453125 C 75.144531 -87.453125 81.40625 -85.507812 87.019531 -82.054688 C 92.417969 -78.382812 96.304688 -73.417969 98.894531 -67.371094 L 120.488281 -76.65625 C 115.953125 -87.019531 109.042969 -95.007812 99.761719 -101.054688 C 90.476562 -107.101562 79.894531 -110.125 68.234375 -110.125 C 52.039062 -110.125 38.4375 -104.726562 27.207031 -93.929688 C 15.980469 -83.132812 10.582031 -69.746094 10.582031 -53.984375 C 10.582031 -38.003906 15.980469 -24.832031 27.207031 -14.035156 C 38.4375 -3.238281 52.039062 2.160156 68.234375 2.160156 Z M 68.234375 2.160156 "/></g></g></g><g fill="rgb(0%, 0%, 0%)" fill-opacity="1"><g transform="translate(1094.660989, 590.579761)"><g><path d="M 68.234375 2.160156 C 84.210938 2.160156 97.816406 -3.238281 109.042969 -14.035156 C 120.273438 -24.832031 125.886719 -38.21875 125.886719 -53.984375 C 125.886719 -69.53125 120.273438 -82.917969 109.042969 -93.714844 C 97.816406 -104.511719 84.210938 -110.125 68.234375 -110.125 C 52.039062 -110.125 38.4375 -104.511719 27.207031 -93.714844 C 15.980469 -82.917969 10.582031 -69.53125 10.582031 -53.984375 C 10.582031 -38.21875 15.980469 -24.832031 27.207031 -14.035156 C 38.4375 -3.238281 52.039062 2.160156 68.234375 2.160156 Z M 68.234375 -20.511719 C 58.734375 -20.511719 50.742188 -23.753906 44.265625 -30.230469 C 37.789062 -36.707031 34.550781 -44.480469 34.550781 -53.984375 C 34.550781 -63.269531 37.789062 -71.257812 44.265625 -77.734375 C 50.742188 -84.210938 58.734375 -87.453125 68.234375 -87.453125 C 77.519531 -87.453125 85.507812 -84.210938 91.988281 -77.734375 C 98.464844 -71.257812 101.703125 -63.269531 101.703125 -53.984375 C 101.703125 -44.480469 98.464844 -36.707031 91.988281 -30.230469 C 85.507812 -23.753906 77.519531 -20.511719 68.234375 -20.511719 Z M 68.234375 -20.511719 "/></g></g></g><g fill="rgb(0%, 0%, 0%)" fill-opacity="1"><g transform="translate(1231.119166, 590.579761)"><g><path d="M 69.53125 -109.910156 C 57.4375 -109.910156 48.367188 -103.648438 42.105469 -91.339844 L 42.105469 -107.964844 L 18.136719 -107.964844 L 18.136719 0 L 42.105469 0 L 42.105469 -55.492188 C 42.105469 -64.777344 44.480469 -72.335938 49.664062 -78.382812 C 54.847656 -84.210938 61.324219 -87.234375 69.3125 -87.234375 C 72.984375 -87.234375 76.222656 -86.371094 79.246094 -85.078125 L 79.246094 -107.964844 C 75.792969 -109.261719 72.550781 -109.910156 69.53125 -109.910156 Z M 69.53125 -109.910156 "/></g></g></g><g fill="rgb(0%, 0%, 0%)" fill-opacity="1"><g transform="translate(1313.166802, 590.579761)"><g><path d="M 101.054688 -107.964844 L 101.054688 -94.363281 C 91.554688 -104.726562 79.246094 -110.125 64.132812 -110.125 C 49.449219 -110.125 36.707031 -104.511719 26.34375 -93.714844 C 15.761719 -82.703125 10.582031 -69.53125 10.582031 -53.984375 C 10.582031 -38.4375 15.761719 -25.046875 26.34375 -14.25 C 36.707031 -3.238281 49.449219 2.160156 64.132812 2.160156 C 79.246094 2.160156 91.554688 -3.023438 101.054688 -13.605469 L 101.054688 0 L 125.238281 0 L 125.238281 -107.964844 Z M 68.234375 -20.511719 C 58.734375 -20.511719 50.742188 -23.753906 44.265625 -30.230469 C 37.789062 -36.707031 34.550781 -44.480469 34.550781 -53.984375 C 34.550781 -63.269531 37.789062 -71.257812 44.265625 -77.734375 C 50.742188 -84.210938 58.734375 -87.453125 68.234375 -87.453125 C 77.519531 -87.453125 85.507812 -84.210938 91.988281 -77.734375 C 98.464844 -71.257812 101.703125 -63.269531 101.703125 -53.984375 C 101.703125 -44.480469 98.464844 -36.707031 91.988281 -30.230469 C 85.507812 -23.753906 77.519531 -20.511719 68.234375 -20.511719 Z M 68.234375 -20.511719 "/></g></g></g><g fill="rgb(0%, 0%, 0%)" fill-opacity="1"><g transform="translate(1456.534251, 590.579761)"><g><path d="M 18.136719 0 L 42.105469 0 L 42.105469 -161.949219 L 18.136719 -161.949219 Z M 18.136719 0 "/></g></g></g><g fill="rgb(0%, 0%, 0%)" fill-opacity="1"><g transform="translate(1516.774497, 590.579761)"><g><path d="M 31.742188 -134.957031 C 35.628906 -134.957031 39.082031 -136.253906 42.105469 -139.058594 C 44.914062 -141.867188 46.425781 -145.320312 46.425781 -149.425781 C 46.425781 -153.3125 44.914062 -156.765625 42.105469 -159.789062 C 39.082031 -162.59375 35.628906 -164.105469 31.742188 -164.105469 C 27.640625 -164.105469 24.183594 -162.59375 21.378906 -159.789062 C 18.355469 -156.765625 17.058594 -153.3125 17.058594 -149.425781 C 17.058594 -145.320312 18.355469 -141.867188 21.378906 -139.058594 C 24.183594 -136.253906 27.640625 -134.957031 31.742188 -134.957031 Z M 19.648438 0 L 43.617188 0 L 43.617188 -107.964844 L 19.648438 -107.964844 Z M 19.648438 0 "/></g></g></g><g fill="rgb(0%, 0%, 0%)" fill-opacity="1"><g transform="translate(1579.821598, 590.579761)"><g><path d="M 101.054688 -107.964844 L 101.054688 -94.363281 C 91.554688 -104.726562 79.246094 -110.125 64.132812 -110.125 C 49.449219 -110.125 36.707031 -104.511719 26.34375 -93.714844 C 15.761719 -82.703125 10.582031 -69.53125 10.582031 -53.984375 C 10.582031 -38.4375 15.761719 -25.046875 26.34375 -14.25 C 36.707031 -3.238281 49.449219 2.160156 64.132812 2.160156 C 79.246094 2.160156 91.554688 -3.023438 101.054688 -13.605469 L 101.054688 0 L 125.238281 0 L 125.238281 -107.964844 Z M 68.234375 -20.511719 C 58.734375 -20.511719 50.742188 -23.753906 44.265625 -30.230469 C 37.789062 -36.707031 34.550781 -44.480469 34.550781 -53.984375 C 34.550781 -63.269531 37.789062 -71.257812 44.265625 -77.734375 C 50.742188 -84.210938 58.734375 -87.453125 68.234375 -87.453125 C 77.519531 -87.453125 85.507812 -84.210938 91.988281 -77.734375 C 98.464844 -71.257812 101.703125 -63.269531 101.703125 -53.984375 C 101.703125 -44.480469 98.464844 -36.707031 91.988281 -30.230469 C 85.507812 -23.753906 77.519531 -20.511719 68.234375 -20.511719 Z M 68.234375 -20.511719 "/></g></g></g><g fill="rgb(0%, 0%, 0%)" fill-opacity="1"><g transform="translate(684.531201, 714.472028)"><g><path d="M 45.097656 -59.652344 L 45.097656 -34.199219 L 15.828125 -34.199219 L 15.828125 -59.652344 L 6.679688 -59.652344 L 6.679688 0 L 15.828125 0 L 15.828125 -25.53125 L 45.097656 -25.53125 L 45.097656 0 L 54.324219 0 L 54.324219 -59.652344 Z M 45.097656 -59.652344 "/></g></g></g><g fill="rgb(0%, 0%, 0%)" fill-opacity="1"><g transform="translate(745.522573, 714.472028)"><g><path d="M 35.15625 0.796875 C 43.585938 0.796875 50.824219 -2.148438 56.789062 -8.113281 C 62.753906 -14.078125 65.777344 -21.316406 65.777344 -29.824219 C 65.777344 -38.257812 62.753906 -45.496094 56.789062 -51.460938 C 50.824219 -57.425781 43.585938 -60.445312 35.15625 -60.445312 C 26.644531 -60.445312 19.40625 -57.425781 13.441406 -51.460938 C 7.476562 -45.496094 4.535156 -38.257812 4.535156 -29.824219 C 4.535156 -21.316406 7.476562 -14.078125 13.441406 -8.113281 C 19.40625 -2.148438 26.644531 0.796875 35.15625 0.796875 Z M 35.15625 -8.273438 C 29.109375 -8.273438 24.019531 -10.339844 19.882812 -14.476562 C 15.667969 -18.609375 13.601562 -23.78125 13.601562 -29.824219 C 13.601562 -35.871094 15.667969 -40.960938 19.882812 -45.097656 C 24.019531 -49.230469 29.109375 -51.378906 35.15625 -51.378906 C 41.199219 -51.378906 46.289062 -49.230469 50.425781 -45.097656 C 54.5625 -40.960938 56.707031 -35.871094 56.707031 -29.824219 C 56.707031 -23.78125 54.5625 -18.609375 50.425781 -14.476562 C 46.289062 -10.339844 41.199219 -8.273438 35.15625 -8.273438 Z M 35.15625 -8.273438 "/></g></g></g><g fill="rgb(0%, 0%, 0%)" fill-opacity="1"><g transform="translate(815.817732, 714.472028)"><g><path d="M 59.015625 -59.652344 L 37.699219 -23.304688 L 16.542969 -59.652344 L 6.679688 -59.652344 L 6.679688 0 L 15.828125 0 L 15.828125 -44.378906 L 37.621094 -6.523438 L 59.652344 -44.460938 L 59.652344 0 L 68.796875 0 L 68.796875 -59.652344 Z M 59.015625 -59.652344 "/></g></g></g><g fill="rgb(0%, 0%, 0%)" fill-opacity="1"><g transform="translate(891.281675, 714.472028)"><g><path d="M 41.597656 -51.222656 L 41.597656 -59.652344 L 7.15625 -59.652344 L 7.15625 0 L 41.597656 0 L 41.597656 -8.429688 L 16.304688 -8.429688 L 16.304688 -25.609375 L 38.257812 -25.609375 L 38.257812 -34.042969 L 16.304688 -34.042969 L 16.304688 -51.222656 Z M 41.597656 -51.222656 "/></g></g></g><g fill="rgb(0%, 0%, 0%)" fill-opacity="1"><g transform="translate(936.448721, 714.472028)"><g/></g></g><g fill="rgb(0%, 0%, 0%)" fill-opacity="1"><g transform="translate(958.237054, 714.472028)"><g><path d="M 6.679688 0 L 24.335938 0 C 33.007812 0 40.164062 -2.863281 45.890625 -8.589844 C 51.539062 -14.316406 54.402344 -21.394531 54.402344 -29.824219 C 54.402344 -38.175781 51.539062 -45.253906 45.890625 -50.980469 C 40.164062 -56.707031 33.007812 -59.652344 24.335938 -59.652344 L 6.679688 -59.652344 Z M 15.828125 -8.589844 L 15.828125 -51.0625 L 24.019531 -51.0625 C 30.144531 -51.0625 35.15625 -48.992188 39.132812 -45.015625 C 43.027344 -40.960938 45.015625 -35.871094 45.015625 -29.824219 C 45.015625 -23.703125 43.027344 -18.609375 39.132812 -14.632812 C 35.15625 -10.578125 30.144531 -8.589844 24.019531 -8.589844 Z M 15.828125 -8.589844 "/></g></g></g><g fill="rgb(0%, 0%, 0%)" fill-opacity="1"><g transform="translate(1017.160926, 714.472028)"><g><path d="M 41.597656 -51.222656 L 41.597656 -59.652344 L 7.15625 -59.652344 L 7.15625 0 L 41.597656 0 L 41.597656 -8.429688 L 16.304688 -8.429688 L 16.304688 -25.609375 L 38.257812 -25.609375 L 38.257812 -34.042969 L 16.304688 -34.042969 L 16.304688 -51.222656 Z M 41.597656 -51.222656 "/></g></g></g><g fill="rgb(0%, 0%, 0%)" fill-opacity="1"><g transform="translate(1062.327973, 714.472028)"><g><path d="M 35.949219 0.796875 C 40.085938 0.796875 44.222656 -0.078125 48.277344 -1.910156 C 52.253906 -3.660156 55.675781 -6.125 58.457031 -9.148438 L 51.617188 -15.113281 C 47.324219 -10.5 42.152344 -8.273438 35.949219 -8.273438 C 29.90625 -8.273438 24.734375 -10.339844 20.601562 -14.476562 C 16.464844 -18.609375 14.394531 -23.78125 14.394531 -29.824219 C 14.394531 -35.871094 16.464844 -40.960938 20.601562 -45.097656 C 24.734375 -49.230469 29.90625 -51.378906 35.949219 -51.378906 C 42.234375 -51.378906 47.484375 -49.074219 51.617188 -44.539062 L 58.457031 -50.503906 C 55.675781 -53.527344 52.253906 -55.914062 48.277344 -57.742188 C 44.222656 -59.492188 40.085938 -60.445312 35.949219 -60.445312 C 27.441406 -60.445312 20.203125 -57.425781 14.238281 -51.539062 C 8.273438 -45.574219 5.328125 -38.335938 5.328125 -29.824219 C 5.328125 -21.234375 8.273438 -14 14.238281 -8.113281 C 20.203125 -2.148438 27.441406 0.796875 35.949219 0.796875 Z M 35.949219 0.796875 "/></g></g></g><g fill="rgb(0%, 0%, 0%)" fill-opacity="1"><g transform="translate(1123.478428, 714.472028)"><g><path d="M 35.15625 0.796875 C 43.585938 0.796875 50.824219 -2.148438 56.789062 -8.113281 C 62.753906 -14.078125 65.777344 -21.316406 65.777344 -29.824219 C 65.777344 -38.257812 62.753906 -45.496094 56.789062 -51.460938 C 50.824219 -57.425781 43.585938 -60.445312 35.15625 -60.445312 C 26.644531 -60.445312 19.40625 -57.425781 13.441406 -51.460938 C 7.476562 -45.496094 4.535156 -38.257812 4.535156 -29.824219 C 4.535156 -21.316406 7.476562 -14.078125 13.441406 -8.113281 C 19.40625 -2.148438 26.644531 0.796875 35.15625 0.796875 Z M 35.15625 -8.273438 C 29.109375 -8.273438 24.019531 -10.339844 19.882812 -14.476562 C 15.667969 -18.609375 13.601562 -23.78125 13.601562 -29.824219 C 13.601562 -35.871094 15.667969 -40.960938 19.882812 -45.097656 C 24.019531 -49.230469 29.109375 -51.378906 35.15625 -51.378906 C 41.199219 -51.378906 46.289062 -49.230469 50.425781 -45.097656 C 54.5625 -40.960938 56.707031 -35.871094 56.707031 -29.824219 C 56.707031 -23.78125 54.5625 -18.609375 50.425781 -14.476562 C 46.289062 -10.339844 41.199219 -8.273438 35.15625 -8.273438 Z M 35.15625 -8.273438 "/></g></g></g><g fill="rgb(0%, 0%, 0%)" fill-opacity="1"><g transform="translate(1193.773587, 714.472028)"><g><path d="M 33.722656 -26.167969 C 37.539062 -26.882812 40.644531 -28.710938 43.109375 -31.734375 C 45.496094 -34.757812 46.765625 -38.257812 46.765625 -42.3125 C 46.765625 -47.085938 45.097656 -51.222656 41.757812 -54.5625 C 38.414062 -57.902344 34.4375 -59.652344 29.667969 -59.652344 L 6.679688 -59.652344 L 6.679688 0 L 15.828125 0 L 15.828125 -25.371094 L 24.257812 -25.371094 L 40.246094 0 L 50.902344 0 Z M 15.828125 -33.484375 L 15.828125 -51.0625 L 28.710938 -51.0625 C 31.257812 -51.0625 33.484375 -50.1875 35.234375 -48.597656 C 36.984375 -46.925781 37.859375 -44.777344 37.859375 -42.234375 C 37.859375 -39.6875 36.984375 -37.539062 35.234375 -35.949219 C 33.484375 -34.28125 31.257812 -33.484375 28.710938 -33.484375 Z M 15.828125 -33.484375 "/></g></g></g></svg>